<svg width="256" height="256" viewBox="0 0 256 256" fill="none" xmlns="http://www.w3.org/2000/svg">
  <path
    d="M0 0H256V256H0V0"
    class="back"
  />
  <path
    d="M23.5049 91.16C21.8249 91.16 18.8849 89.54 14.6849 86.3C10.3649 83.06 8.20492 80.42 8.20492 78.38C8.20492 76.34 9.64492 74.78 12.5249 73.7C18.0449 71.3 23.6249 69.44 29.2649 68.12L31.9649 67.58C32.5649 67.34 33.1049 67.22 33.5849 67.22C34.4249 67.22 34.8449 67.7 34.8449 68.66C34.8449 69.5 35.3249 69.92 36.2849 69.92C37.2449 69.92 41.6249 69.08 49.4249 67.4C72.8249 62.6 94.9649 60.2 115.845 60.2C128.085 60.2 138.465 61.7 146.985 64.7C155.625 67.58 159.945 71.72 159.945 77.12C159.945 78.32 158.265 78.92 154.905 78.92C151.665 78.92 147.705 78.98 143.025 79.1C138.465 79.22 132.705 79.4 125.745 79.64C109.425 80.36 101.265 81.98 101.265 84.5C101.265 84.98 101.385 85.34 101.625 85.58C101.625 86.18 100.965 87.2 99.6449 88.64C98.3249 89.96 96.2849 92.12 93.5249 95.12C90.7649 98.12 85.6049 103.88 78.0449 112.4C70.4849 120.8 63.5249 128.72 57.1649 136.16C40.7249 155.6 29.3849 170.6 23.1449 181.16C22.7849 185.24 21.5849 187.28 19.5449 187.28C17.9849 187.28 15.9449 186.08 13.4249 183.68C10.7849 181.28 9.46492 178.34 9.46492 174.86C9.46492 168.38 14.3249 159.26 24.0449 147.5C33.7649 135.74 52.9649 116.84 81.6449 90.8C82.9649 89.48 84.1649 88.4 85.2449 87.56C86.9249 86.24 87.7649 85.46 87.7649 85.22C87.7649 84.98 87.4049 84.86 86.6849 84.86C85.9649 84.86 84.5249 84.98 82.3649 85.22L27.2849 90.62C26.4449 90.98 25.1849 91.16 23.5049 91.16ZM179.842 134.54L161.482 135.26C150.202 135.26 142.582 134.9 138.622 134.18C134.782 133.34 131.302 132.38 128.182 131.3C125.182 130.22 122.782 128.96 120.982 127.52C116.542 124.16 114.322 119.66 114.322 114.02C114.322 112.34 115.342 109.82 117.382 106.46C119.422 103.1 122.902 99.14 127.822 94.58C132.862 89.9 138.802 85.52 145.642 81.44C152.602 77.24 161.722 73.58 173.002 70.46C184.282 67.34 196.522 65.54 209.722 65.06C214.402 65.06 219.322 65.66 224.482 66.86C229.762 67.94 234.082 69.26 237.442 70.82C240.922 72.38 243.982 74.78 246.622 78.02C249.262 81.14 250.582 84.8 250.582 89C250.582 92.36 247.342 95.96 240.862 99.8C233.662 104.12 224.122 106.28 212.242 106.28C200.482 106.28 194.602 105.44 194.602 103.76C194.602 102.44 198.022 100.88 204.862 99.08C211.822 97.28 218.782 95.18 225.742 92.78C232.702 90.38 236.182 87.68 236.182 84.68C236.182 83.12 233.542 82.34 228.262 82.34C193.462 82.34 163.582 91.34 138.622 109.34C133.942 112.82 131.602 115.82 131.602 118.34C131.602 122.3 144.082 124.28 169.042 124.28C191.482 124.52 202.702 130.52 202.702 142.28C202.702 150.68 197.002 158.66 185.602 166.22C174.202 173.78 160.762 179.66 145.282 183.86C129.922 188.06 115.462 190.22 101.902 190.34C95.542 190.34 88.822 188.66 81.742 185.3C74.662 181.94 71.122 177.86 71.122 173.06C71.122 171.5 72.442 170.66 75.082 170.54C89.242 168.98 98.302 167.3 102.262 165.5C103.222 165.26 104.002 165.14 104.602 165.14C105.202 165.14 105.502 165.26 105.502 165.5C105.502 165.98 104.782 166.76 103.342 167.84C102.022 168.56 100.582 169.22 99.022 169.82C95.662 171.02 93.982 171.8 93.982 172.16C93.982 172.52 95.182 172.7 97.582 172.7C99.982 172.7 106.042 171.74 115.762 169.82C125.482 167.9 135.862 165.44 146.902 162.44C158.062 159.44 167.902 155.72 176.422 151.28C184.942 146.84 189.202 142.58 189.202 138.5C189.202 135.86 186.082 134.54 179.842 134.54Z"
    class="path"
  />
  <path
    d="M14.6849 86.3L15.9065 84.7164L15.8958 84.7081L15.8849 84.7L14.6849 86.3ZM12.5249 73.7L13.2272 75.5727L13.2753 75.5546L13.3224 75.5341L12.5249 73.7ZM29.2649 68.12L28.8727 66.1588L28.8408 66.1652L28.8092 66.1726L29.2649 68.12ZM31.9649 67.58L32.3572 69.5412L32.5372 69.5051L32.7077 69.4369L31.9649 67.58ZM49.4249 67.4L49.023 65.4408L49.0134 65.4428L49.0038 65.4448L49.4249 67.4ZM146.985 64.7L146.321 66.5865L146.337 66.592L146.352 66.5974L146.985 64.7ZM143.025 79.1L142.974 77.1007L142.972 77.1007L143.025 79.1ZM125.745 79.64L125.676 77.6412L125.666 77.6415L125.657 77.6419L125.745 79.64ZM101.625 85.58H103.625V84.7516L103.039 84.1658L101.625 85.58ZM99.6449 88.64L101.059 90.0542L101.09 90.0235L101.119 89.9914L99.6449 88.64ZM78.0449 112.4L79.5315 113.738L79.5409 113.727L78.0449 112.4ZM57.1649 136.16L55.6447 134.86L55.6378 134.869L57.1649 136.16ZM23.1449 181.16L21.4231 180.143L21.1925 180.533L21.1527 180.984L23.1449 181.16ZM13.4249 183.68L14.8042 182.232L14.7874 182.216L14.7703 182.2L13.4249 183.68ZM24.0449 147.5L22.5033 146.226L24.0449 147.5ZM81.6449 90.8L82.9893 92.2807L83.025 92.2483L83.0591 92.2142L81.6449 90.8ZM85.2449 87.56L86.4728 89.1387L86.4806 89.1326L85.2449 87.56ZM82.3649 85.22L82.5601 87.2104L82.5729 87.2092L82.5858 87.2078L82.3649 85.22ZM27.2849 90.62L27.0898 88.6295L26.7817 88.6597L26.4971 88.7817L27.2849 90.62ZM23.5049 89.16C23.1984 89.16 22.4195 88.9727 21.0051 88.1933C19.6607 87.4525 17.9662 86.3053 15.9065 84.7164L13.4633 87.8836C15.6036 89.5347 17.4791 90.8175 19.0747 91.6967C20.6003 92.5373 22.1315 93.16 23.5049 93.16V89.16ZM15.8849 84.7C13.7884 83.1276 12.3094 81.7682 11.3728 80.6235C10.4047 79.4403 10.2049 78.7169 10.2049 78.38H6.20492C6.20492 80.0831 7.08511 81.6997 8.27701 83.1565C9.50044 84.6518 11.2614 86.2324 13.4849 87.9L15.8849 84.7ZM10.2049 78.38C10.2049 77.5791 10.6631 76.5342 13.2272 75.5727L11.8227 71.8273C8.62672 73.0258 6.20492 75.1009 6.20492 78.38H10.2049ZM13.3224 75.5341C18.7364 73.1802 24.2022 71.3589 29.7207 70.0674L28.8092 66.1726C23.0476 67.5211 17.3534 69.4198 11.7275 71.8659L13.3224 75.5341ZM29.6572 70.0812L32.3572 69.5412L31.5727 65.6188L28.8727 66.1588L29.6572 70.0812ZM32.7077 69.4369C33.1484 69.2607 33.4308 69.22 33.5849 69.22V65.22C32.779 65.22 31.9814 65.4193 31.2221 65.723L32.7077 69.4369ZM33.5849 69.22C33.6092 69.22 33.5423 69.224 33.4242 69.179C33.2941 69.1294 33.1474 69.0371 33.0248 68.897C32.7883 68.6268 32.8449 68.4276 32.8449 68.66H36.8449C36.8449 67.9324 36.6915 67.0132 36.0351 66.263C35.334 65.4617 34.3878 65.22 33.5849 65.22V69.22ZM32.8449 68.66C32.8449 69.4629 33.0867 70.409 33.8879 71.1101C34.6382 71.7666 35.5574 71.92 36.2849 71.92V67.92C36.0525 67.92 36.2517 67.8634 36.5219 68.0998C36.6621 68.2225 36.7543 68.3692 36.8039 68.4993C36.8489 68.6174 36.8449 68.6843 36.8449 68.66H32.8449ZM36.2849 71.92C36.7048 71.92 37.3082 71.8403 37.957 71.7382C38.656 71.6283 39.5618 71.4661 40.6666 71.2542C42.8787 70.83 45.9408 70.1963 49.846 69.3552L49.0038 65.4448C45.109 66.2837 42.0812 66.91 39.9132 67.3258C38.8281 67.5339 37.9714 67.6868 37.3354 67.7868C37.0171 67.8369 36.7657 67.8718 36.5754 67.8939C36.4806 67.9048 36.4078 67.9118 36.3541 67.9159C36.2974 67.9201 36.2778 67.92 36.2849 67.92V71.92ZM49.8268 69.3592C73.1131 64.5825 95.1176 62.2 115.845 62.2V58.2C94.8123 58.2 72.5368 60.6175 49.023 65.4408L49.8268 69.3592ZM115.845 62.2C127.934 62.2 138.075 63.683 146.321 66.5865L147.649 62.8135C138.855 59.717 128.236 58.2 115.845 58.2V62.2ZM146.352 66.5974C154.812 69.4173 157.945 73.1009 157.945 77.12H161.945C161.945 70.3391 156.438 65.7427 147.617 62.8026L146.352 66.5974ZM157.945 77.12C157.945 76.899 158.042 76.6776 158.168 76.5429C158.251 76.4532 158.257 76.4991 158.012 76.5865C157.503 76.7685 156.521 76.92 154.905 76.92V80.92C156.649 80.92 158.187 80.7714 159.358 80.3535C159.953 80.1409 160.588 79.8118 161.092 79.2721C161.638 78.6874 161.945 77.9409 161.945 77.12H157.945ZM154.905 76.92C151.642 76.92 147.664 76.9804 142.974 77.1007L143.076 81.0993C147.746 80.9796 151.688 80.92 154.905 80.92V76.92ZM142.972 77.1007C138.405 77.2209 132.639 77.4011 125.676 77.6412L125.814 81.6388C132.771 81.3989 138.525 81.2191 143.078 81.0993L142.972 77.1007ZM125.657 77.6419C117.472 78.003 111.229 78.5928 106.995 79.4333C104.897 79.8499 103.155 80.3535 101.89 80.9952C100.757 81.57 99.2649 82.6475 99.2649 84.5H103.265C103.265 85.0925 102.793 85.0225 103.7 84.5623C104.475 84.169 105.793 83.7501 107.774 83.3567C111.701 82.5772 117.697 81.997 125.833 81.638L125.657 77.6419ZM99.2649 84.5C99.2649 85.2883 99.4634 86.2469 100.211 86.9942L103.039 84.1658C103.163 84.2901 103.226 84.4181 103.252 84.4975C103.276 84.5673 103.265 84.5793 103.265 84.5H99.2649ZM99.6249 85.58C99.6249 85.3814 99.6747 85.291 99.649 85.3542C99.6279 85.406 99.5719 85.5213 99.4508 85.7085C99.2067 86.0857 98.7946 86.6078 98.1706 87.2885L101.119 89.9914C101.815 89.2321 102.393 88.5243 102.809 87.8815C103.173 87.3195 103.625 86.4956 103.625 85.58H99.6249ZM98.2307 87.2258C96.8792 88.5773 94.8153 90.7635 92.0531 93.7659L94.9968 96.4741C97.7546 93.4765 99.7707 91.3427 101.059 90.0542L98.2307 87.2258ZM92.0531 93.7659C89.2791 96.7811 84.1076 102.554 76.5489 111.073L79.5409 113.727C87.1023 105.206 92.2508 99.4589 94.9968 96.4741L92.0531 93.7659ZM76.5583 111.062C68.9886 119.473 62.0173 127.406 55.6447 134.86L58.6852 137.46C65.0326 130.034 71.9812 122.127 79.5315 113.738L76.5583 111.062ZM55.6378 134.869C39.1852 154.323 27.7533 169.43 21.4231 180.143L24.8668 182.177C31.0166 171.77 42.2647 156.877 58.6921 137.451L55.6378 134.869ZM21.1527 180.984C20.9824 182.914 20.6281 184.095 20.2511 184.736C19.9419 185.261 19.7308 185.28 19.5449 185.28V189.28C21.399 189.28 22.8079 188.279 23.6988 186.764C24.5217 185.365 24.9475 183.486 25.1372 181.336L21.1527 180.984ZM19.5449 185.28C19.26 185.28 18.7183 185.162 17.859 184.656C17.0167 184.161 16.0001 183.371 14.8042 182.232L12.0456 185.128C13.3698 186.389 14.6331 187.399 15.8309 188.104C17.0115 188.798 18.2698 189.28 19.5449 189.28V185.28ZM14.7703 182.2C12.5352 180.168 11.4649 177.761 11.4649 174.86H7.46492C7.46492 178.919 9.0346 182.392 12.0796 185.16L14.7703 182.2ZM11.4649 174.86C11.4649 172.087 12.5169 168.526 14.8749 164.101C17.2197 159.7 20.7757 154.595 25.5865 148.774L22.5033 146.226C17.5942 152.165 13.8601 157.5 11.3449 162.219C8.84298 166.914 7.46492 171.153 7.46492 174.86H11.4649ZM25.5865 148.774C35.2043 137.138 54.3049 118.325 82.9893 92.2807L80.3005 89.3193C51.6249 115.355 32.3255 134.342 22.5033 146.226L25.5865 148.774ZM83.0591 92.2142C84.34 90.9333 85.4769 89.9133 86.4728 89.1387L84.017 85.9813C82.8529 86.8867 81.5898 88.0267 80.2307 89.3858L83.0591 92.2142ZM86.4806 89.1326C87.3337 88.4623 88.0149 87.8971 88.4958 87.4506C88.7312 87.2321 88.9633 87.001 89.1513 86.7727C89.2438 86.6603 89.364 86.5028 89.4706 86.3125C89.5507 86.1695 89.7649 85.7667 89.7649 85.22H85.7649C85.7649 84.7333 85.9529 84.4074 85.9805 84.3581C86.0346 84.2616 86.076 84.2147 86.0636 84.2298C86.0416 84.2565 85.9587 84.3479 85.774 84.5194C85.4149 84.8528 84.8361 85.3377 84.0093 85.9874L86.4806 89.1326ZM89.7649 85.22C89.7649 83.7715 88.5687 83.1997 88.1274 83.0526C87.6347 82.8884 87.1033 82.86 86.6849 82.86V86.86C86.9866 86.86 86.9951 86.8916 86.8625 86.8474C86.7906 86.8234 86.5389 86.7324 86.2832 86.4767C85.9784 86.1719 85.7649 85.7251 85.7649 85.22H89.7649ZM86.6849 82.86C85.8355 82.86 84.285 82.9943 82.1441 83.2322L82.5858 87.2078C84.7648 86.9657 86.0943 86.86 86.6849 86.86V82.86ZM82.1698 83.2295L27.0898 88.6295L27.4801 92.6105L82.5601 87.2104L82.1698 83.2295ZM26.4971 88.7817C26.0351 88.9797 25.1031 89.16 23.5049 89.16V93.16C25.2667 93.16 26.8547 92.9803 28.0728 92.4583L26.4971 88.7817ZM179.842 134.54V132.54H179.803L179.764 132.542L179.842 134.54ZM161.482 135.26V137.26H161.521L161.56 137.258L161.482 135.26ZM138.622 134.18L138.195 136.134L138.229 136.141L138.264 136.148L138.622 134.18ZM128.182 131.3L127.505 133.182L127.516 133.186L127.528 133.19L128.182 131.3ZM120.982 127.52L122.231 125.958L122.21 125.941L122.189 125.925L120.982 127.52ZM117.382 106.46L115.672 105.422L117.382 106.46ZM127.822 94.58L129.181 96.0469L129.183 96.0456L127.822 94.58ZM145.642 81.44L146.667 83.1577L146.675 83.1524L145.642 81.44ZM173.002 70.46L172.469 68.5324L173.002 70.46ZM209.722 65.06V63.06H209.686L209.649 63.0613L209.722 65.06ZM224.482 66.86L224.029 68.808L224.055 68.8141L224.081 68.8194L224.482 66.86ZM237.442 70.82L236.6 72.634L236.612 72.6396L236.624 72.645L237.442 70.82ZM246.622 78.02L245.071 79.2833L245.083 79.2977L245.095 79.3119L246.622 78.02ZM240.862 99.8L239.842 98.0794L239.833 98.085L240.862 99.8ZM204.862 99.08L204.361 97.1437L204.353 97.1458L204.862 99.08ZM225.742 92.78L225.09 90.8893L225.742 92.78ZM138.622 109.34L137.452 107.718L137.44 107.726L137.429 107.735L138.622 109.34ZM169.042 124.28L169.063 122.28L169.053 122.28H169.042V124.28ZM185.602 166.22L184.497 164.553L185.602 166.22ZM145.282 183.86L144.758 181.93L144.754 181.931L145.282 183.86ZM101.902 190.34V192.34H101.911L101.92 192.34L101.902 190.34ZM81.742 185.3L82.5994 183.493L81.742 185.3ZM75.0819 170.54L75.1728 172.538L75.237 172.535L75.301 172.528L75.0819 170.54ZM102.262 165.5L101.777 163.56L101.6 163.604L101.434 163.679L102.262 165.5ZM103.342 167.84L104.3 169.596L104.426 169.527L104.542 169.44L103.342 167.84ZM99.0219 169.82L99.6946 171.703L99.7174 171.695L99.7399 171.687L99.0219 169.82ZM115.762 169.82L115.374 167.858L115.762 169.82ZM146.902 162.44L146.383 160.509L146.377 160.51L146.902 162.44ZM176.422 151.28L175.498 149.506L176.422 151.28ZM179.764 132.542L161.404 133.262L161.56 137.258L179.92 136.538L179.764 132.542ZM161.482 133.26C150.181 133.26 142.736 132.895 138.98 132.212L138.264 136.148C142.428 136.905 150.223 137.26 161.482 137.26V133.26ZM139.049 132.226C135.272 131.4 131.869 130.46 128.836 129.41L127.528 133.19C130.734 134.3 134.292 135.28 138.195 136.134L139.049 132.226ZM128.859 129.418C125.993 128.386 123.808 127.219 122.231 125.958L119.733 129.082C121.756 130.701 124.371 132.054 127.505 133.182L128.859 129.418ZM122.189 125.925C118.256 122.949 116.322 119.043 116.322 114.02H112.322C112.322 120.277 114.828 125.371 119.775 129.115L122.189 125.925ZM116.322 114.02C116.322 113.547 116.475 112.771 116.941 111.62C117.397 110.493 118.105 109.123 119.092 107.498L115.672 105.422C114.619 107.157 113.797 108.727 113.233 110.12C112.679 111.489 112.322 112.813 112.322 114.02H116.322ZM119.092 107.498C120.991 104.369 124.316 100.556 129.181 96.0469L126.462 93.1131C121.488 97.7237 117.853 101.831 115.672 105.422L119.092 107.498ZM129.183 96.0456C134.105 91.4748 139.929 87.1767 146.667 83.1576L144.617 79.7224C137.675 83.8633 131.619 88.3252 126.461 93.1144L129.183 96.0456ZM146.675 83.1524C153.427 79.0779 162.361 75.4784 173.535 72.3876L172.469 68.5324C161.083 71.6816 151.777 75.4021 144.609 79.7276L146.675 83.1524ZM173.535 72.3876C184.647 69.3141 196.731 67.5337 209.795 67.0587L209.649 63.0613C196.313 63.5463 183.917 65.3659 172.469 68.5324L173.535 72.3876ZM209.722 67.06C214.231 67.06 218.998 67.6381 224.029 68.808L224.935 64.912C219.646 63.6819 214.573 63.06 209.722 63.06V67.06ZM224.081 68.8194C229.271 69.881 233.429 71.1617 236.6 72.634L238.284 69.006C234.735 67.3583 230.253 65.999 224.883 64.9006L224.081 68.8194ZM236.624 72.645C239.793 74.0656 242.609 76.2615 245.071 79.2833L248.172 76.7566C245.355 73.2985 242.051 70.6944 238.26 68.995L236.624 72.645ZM245.095 79.3119C247.421 82.06 248.582 85.2588 248.582 89H252.582C252.582 84.3412 251.103 80.22 248.149 76.7281L245.095 79.3119ZM248.582 89C248.582 90.0061 248.099 91.2891 246.665 92.8821C245.234 94.4724 242.994 96.212 239.842 98.0794L241.882 101.521C245.21 99.5479 247.83 97.5676 249.639 95.5579C251.445 93.5509 252.582 91.3539 252.582 89H248.582ZM239.833 98.085C233.047 102.157 223.902 104.28 212.242 104.28V108.28C224.342 108.28 234.277 106.083 241.891 101.515L239.833 98.085ZM212.242 104.28C206.384 104.28 202.089 104.069 199.295 103.67C197.877 103.468 196.983 103.234 196.492 103.024C195.811 102.732 196.602 102.837 196.602 103.76H192.602C192.602 105.523 194.128 106.363 194.917 106.701C195.896 107.121 197.207 107.412 198.729 107.63C201.814 108.071 206.34 108.28 212.242 108.28V104.28ZM196.602 103.76C196.602 104.325 196.253 104.489 196.531 104.255C196.758 104.064 197.211 103.778 197.997 103.42C199.549 102.711 201.983 101.906 205.371 101.014L204.353 97.1458C200.901 98.0543 198.204 98.9285 196.337 99.7804C195.413 100.202 194.584 100.666 193.955 101.195C193.378 101.681 192.602 102.535 192.602 103.76H196.602ZM205.363 101.016C212.375 99.2028 219.385 97.0875 226.394 94.6707L225.09 90.8893C218.179 93.2725 211.269 95.3572 204.361 97.1437L205.363 101.016ZM226.394 94.6707C229.962 93.4405 232.807 92.0796 234.798 90.5352C236.789 88.9907 238.182 87.0467 238.182 84.68H234.182C234.182 85.3133 233.835 86.2193 232.346 87.3748C230.857 88.5304 228.482 89.7195 225.09 90.8893L226.394 94.6707ZM238.182 84.68C238.182 83.6395 237.71 82.7765 237.014 82.1595C236.376 81.5941 235.568 81.2432 234.769 81.007C233.166 80.5334 230.952 80.34 228.262 80.34V84.34C230.852 84.34 232.598 84.5366 233.635 84.843C233.882 84.9159 234.06 84.9871 234.185 85.0483C234.246 85.0784 234.289 85.1039 234.319 85.1229C234.333 85.1323 234.343 85.1398 234.35 85.145C234.354 85.1476 234.356 85.1496 234.358 85.1509C234.36 85.1523 234.36 85.1529 234.36 85.1529C234.324 85.121 234.182 84.9405 234.182 84.68H238.182ZM228.262 80.34C193.099 80.34 162.796 89.4407 137.452 107.718L139.792 110.962C164.368 93.2393 193.825 84.34 228.262 84.34V80.34ZM137.429 107.735C135.012 109.532 133.103 111.274 131.78 112.97C130.469 114.651 129.602 116.458 129.602 118.34H133.602C133.602 117.702 133.905 116.749 134.934 115.43C135.951 114.126 137.552 112.628 139.815 110.945L137.429 107.735ZM129.602 118.34C129.602 120.563 131.372 121.93 133.082 122.745C134.903 123.611 137.468 124.266 140.649 124.77C147.049 125.786 156.537 126.28 169.042 126.28V122.28C156.586 122.28 147.355 121.784 141.275 120.82C138.216 120.334 136.101 119.751 134.801 119.133C133.392 118.462 133.602 118.097 133.602 118.34H129.602ZM169.021 126.28C180.13 126.399 188.159 127.951 193.344 130.724C195.908 132.095 197.725 133.737 198.907 135.608C200.084 137.471 200.702 139.672 200.702 142.28H204.702C204.702 139.008 203.917 136.049 202.289 133.472C200.666 130.903 198.276 128.825 195.23 127.196C189.195 123.969 180.394 122.401 169.063 122.28L169.021 126.28ZM200.702 142.28C200.702 149.67 195.697 157.125 184.497 164.553L186.707 167.887C198.307 160.195 204.702 151.69 204.702 142.28H200.702ZM184.497 164.553C173.303 171.976 160.066 177.776 144.758 181.93L145.806 185.79C161.458 181.544 175.101 175.584 186.707 167.887L184.497 164.553ZM144.754 181.931C129.533 186.093 115.245 188.222 101.884 188.34L101.92 192.34C115.679 192.218 130.311 190.027 145.809 185.789L144.754 181.931ZM101.902 188.34C95.8993 188.34 89.4723 186.755 82.5994 183.493L80.8845 187.107C88.1716 190.565 95.1846 192.34 101.902 192.34V188.34ZM82.5994 183.493C75.7378 180.237 73.1219 176.67 73.1219 173.06H69.1219C69.1219 179.05 73.5861 183.643 80.8845 187.107L82.5994 183.493ZM73.1219 173.06C73.1219 172.96 73.1407 172.955 73.1219 172.989C73.1032 173.023 73.0983 173.003 73.1857 172.947C73.4124 172.803 73.9899 172.592 75.1728 172.538L74.9911 168.542C73.534 168.608 72.1315 168.877 71.0382 169.573C69.8034 170.358 69.1219 171.594 69.1219 173.06H73.1219ZM75.301 172.528C82.4066 171.745 88.2648 170.929 92.8616 170.076C97.4148 169.232 100.874 168.328 103.09 167.321L101.434 163.679C99.6901 164.472 96.6391 165.308 92.1323 166.144C87.6691 166.971 81.9173 167.775 74.8629 168.552L75.301 172.528ZM102.747 167.44C103.637 167.218 104.237 167.14 104.602 167.14V163.14C103.767 163.14 102.807 163.302 101.777 163.56L102.747 167.44ZM104.602 167.14C104.828 167.14 104.744 167.171 104.534 167.087C104.412 167.038 104.15 166.911 103.909 166.623C103.639 166.299 103.502 165.895 103.502 165.5H107.502C107.502 164.985 107.327 164.476 106.982 164.062C106.667 163.684 106.292 163.482 106.02 163.373C105.51 163.169 104.976 163.14 104.602 163.14V167.14ZM103.502 165.5C103.502 165.138 103.629 164.926 103.63 164.924C103.641 164.905 103.612 164.958 103.492 165.088C103.252 165.349 102.822 165.73 102.142 166.24L104.542 169.44C105.302 168.87 105.952 168.321 106.432 167.802C106.671 167.542 106.913 167.242 107.103 166.909C107.285 166.591 107.502 166.102 107.502 165.5H103.502ZM102.384 166.084C101.15 166.758 99.7907 167.382 98.304 167.953L99.7399 171.687C101.373 171.058 102.894 170.362 104.3 169.596L102.384 166.084ZM98.3493 167.937C96.654 168.542 95.3247 169.062 94.3997 169.491C93.9477 169.701 93.5178 169.923 93.174 170.156C93.0073 170.269 92.7817 170.438 92.5765 170.665C92.4167 170.842 91.9819 171.364 91.9819 172.16H95.9819C95.9819 172.866 95.5997 173.285 95.5449 173.346C95.4447 173.457 95.3766 173.496 95.42 173.466C95.4961 173.415 95.6962 173.299 96.0842 173.119C96.8392 172.768 98.0299 172.298 99.6946 171.703L98.3493 167.937ZM91.9819 172.16C91.9819 173.542 93.1351 174.107 93.3862 174.22C93.7885 174.401 94.2293 174.489 94.5853 174.543C95.3376 174.656 96.3589 174.7 97.582 174.7V170.7C96.405 170.7 95.6263 170.654 95.1786 170.587C94.9346 170.551 94.9254 170.526 95.0277 170.572C95.0796 170.596 95.2783 170.689 95.4865 170.907C95.7249 171.158 95.9819 171.588 95.9819 172.16H91.9819ZM97.582 174.7C98.9587 174.7 101.217 174.434 104.24 173.955C107.305 173.47 111.278 172.744 116.15 171.782L115.374 167.858C110.526 168.816 106.609 169.53 103.614 170.005C100.577 170.486 98.6052 170.7 97.582 170.7V174.7ZM116.15 171.782C125.922 169.852 136.348 167.38 147.426 164.37L146.377 160.51C135.376 163.5 125.042 165.948 115.374 167.858L116.15 171.782ZM147.421 164.371C158.694 161.341 168.674 157.573 177.346 153.054L175.498 149.506C167.129 153.867 157.43 157.539 146.383 160.509L147.421 164.371ZM177.346 153.054C181.693 150.788 185.088 148.503 187.421 146.169C189.748 143.842 191.202 141.278 191.202 138.5H187.202C187.202 139.802 186.525 141.408 184.593 143.341C182.666 145.267 179.671 147.332 175.498 149.506L177.346 153.054ZM191.202 138.5C191.202 137.414 190.87 136.395 190.188 135.53C189.53 134.694 188.629 134.106 187.641 133.688C185.707 132.87 183.042 132.54 179.842 132.54V136.54C182.882 136.54 184.897 136.87 186.083 137.372C186.655 137.614 186.924 137.851 187.046 138.005C187.144 138.13 187.202 138.266 187.202 138.5H191.202Z"
    class="path"
  />
  <defs>
    <linearGradient id="gradient" x1="175" y1="0" x2="-28" y2="85.5" gradientUnits="userSpaceOnUse">
      <stop stop-color="#FF5757" />
      <stop offset="1" stop-color="#A82272" />
    </linearGradient>
  </defs>
  <style>
    .back {
      fill: url(#gradient);
    }
    .path {
      fill: white;
    }
    @media (prefers-color-scheme: dark) {
      .back {
        fill: none;
      }
      .path {
        fill: url(#gradient);
      }
    }
    @media (prefers-color-scheme: light) {
      .back {
        fill: none;
      }
      .path {
        fill: url(#gradient);
      }
    }
  </style>
</svg>
