<svg xmlns="http://www.w3.org/2000/svg" fill="none" viewBox="0 0 512 512">
    <g fill="#fff">
        <path d="M48.3 6.5v2.3H17.7v14.3h24.6v11.3H17.7V51h-2.4V6.5h33Z"/>
        <path d="M94 52.2a21 21 0 0 1-14.3-4.4c-3.4-3-5-7.3-5-13.2h10.5c0 2.4.7 4.3 2.1 5.6 1.5 1.3 3.6 1.9 6.3 1.9 2.2 0 4-.4 5.3-1a4 4 0 0 0 1.9-3.4c0-1.2-.7-2.1-2-2.7-1.3-.6-2.6-1-3.8-1.2l-2.4-.4c-3.3-.6-6.1-1.4-8.5-2.3-2.4-1-4.4-2.4-6-4.2a11 11 0 0 1-2.5-7.5c0-3 .8-5.6 2.5-7.8 1.6-2.1 3.7-3.8 6.4-4.8 2.8-1 5.7-1.6 9-1.6 3.8 0 7.2.7 10 2.2a15.6 15.6 0 0 1 8.2 10.6l.2 3.8h-10.4c0-2.3-.6-4-1.9-5-1.2-1.1-3.1-1.7-5.7-1.7-2.1 0-3.7.4-4.9 1a3.3 3.3 0 0 0-1.7 3c0 1.4.7 2.4 2.3 3 1.5.7 3.5 1.3 5.8 1.8a75 75 0 0 1 9 2.2c2.1.7 4 2 5.6 3.7a11 11 0 0 1 2.4 7.6c0 3-.9 5.7-2.6 7.9a16 16 0 0 1-6.8 5.1 23.3 23.3 0 0 1-9 1.8Z"/>
        <path d="M142.7 51V6.5h16.6a18 18 0 0 1 18 18V33a17.6 17.6 0 0 1-9 15.6 17.2 17.2 0 0 1-9 2.4h-16.6Z"/>
        <path d="M242.1 51H208V6.5h17.3c3.7 0 6.8.6 9.1 2 2.3 1.2 4.1 3 5.4 5.2 1.3 2.2 1.9 4.7 1.9 7.3a14.5 14.5 0 0 1-10.8 14.1L242 51ZM212 8.8l17.4 24.3a12.1 12.1 0 0 0 9.9-12.1 11.7 11.7 0 0 0-6.6-10.8c-1.8-1-4.3-1.4-7.3-1.4H212Zm-1.7 1.6v23h16.5l-16.5-23Zm0 38.2h27.4l-9.3-13-2 .1h-16v13Z"/>
        <path d="M270.7 6.5H303v11.2h-20.8v5.7h17.3V34h-17.3v5.7H303V51h-32.4V6.5Z"/>
        <path d="M372.7 51h-42l21-45.5 21 45.5Zm-38.3-2.4H369l-17.3-37.5-17.3 37.5Z"/>
        <path d="M435 34.2c0 5.6-1.5 10-4.8 13A18.5 18.5 0 0 1 417 52c-3.4 0-6.5-.8-9.4-2.3a18.4 18.4 0 0 1-9.2-16.3v-9.3c0-3.7.8-6.9 2.4-9.7a17 17 0 0 1 6.6-6.5 19 19 0 0 1 9.4-2.4c5.7 0 10 1.6 13.3 4.7 3.2 3 4.9 7.4 5 13h-11.6c0-2.2-.6-3.8-1.8-5-1.1-1.2-2.7-1.8-5-1.8-1.9 0-3.5.6-4.8 1.8a7 7 0 0 0-1.9 5.3v10.4c0 2.3.7 4 2 5.3 1.3 1.3 3 1.9 5 1.9 4.5 0 6.7-2.3 6.7-7H435Z"/>
        <path d="M477.5 51V17.7h-16.8V6.5h36v11.2h-16.9V51h-2.3Z"/>
        <path d="M141.3 114V69.3h2.5L175 99.7V69.4h2.4v44.5h-36Z"/>
        <path d="M207.7 69.5H240v11.2h-20.8v5.7h17.3V97h-17.3v5.7H240V114h-32.4V69.5Z"/>
        <path d="m267.8 114 17.5-22.3-17.5-22.2h37.8l-17.4 22.2 17.4 22.3h-37.8Zm18.9-24.2 14.1-18h-28.2l14 18Zm14.1 21.8-14.1-18-14.1 18h28.2Z"/>
        <path d="M350.5 114V80.7h-16.8V69.5h36v11.2h-16.9V114h-2.3Z"/>
        <path d="M72.7 134.4h42l-21 45.5-21-45.5Zm21 39.9 17.3-37.5H76.4l17.3 37.5Z"/>
        <path d="M144.3 145.7v-11.2H173v11.2h-13.3v22H173V179h-28.8v-11.3h13.2v-22h-13.2Z"/>
        <path d="M222.5 179v-33.3h-16.8v-11.2h36v11.2h-16.9V179h-2.3Z"/>
        <path d="M270.7 134.5H303v11.2h-20.8v5.7h17.3V162h-17.3v5.7H303V179h-32.4v-44.5Z"/>
        <path d="M14.7 199.5H47v11.2H26.3v5.7h17.3V227H26.3v5.7h20.8V244H14.7v-44.5Z"/>
        <path d="M111.3 199.5v2.3H80.7v14.3h24.6v11.3H80.7V244h-2.4v-44.5h33Z"/>
        <path d="M176.3 199.5v2.3h-30.6v14.3h24.6v11.3h-24.6V244h-2.4v-44.5h33Z"/>
        <path d="M207.7 199.5H240v11.2h-20.8v5.7h17.3V227h-17.3v5.7H240V244h-32.4v-44.5Z"/>
        <path d="M305 227.2c0 5.6-1.5 10-4.8 13A18.5 18.5 0 0 1 287 245c-3.4 0-6.5-.8-9.4-2.3a18.4 18.4 0 0 1-9.2-16.3v-9.3c0-3.7.8-6.9 2.4-9.7a17 17 0 0 1 6.6-6.5c2.8-1.6 6-2.4 9.4-2.4 5.7 0 10 1.6 13.3 4.7 3.2 3 4.9 7.4 5 13h-11.6c0-2.2-.6-3.8-1.8-5-1.1-1.2-2.7-1.8-5-1.8-1.9 0-3.5.6-4.8 1.8a7 7 0 0 0-1.9 5.3v10.4c0 2.3.7 4 2 5.3 1.3 1.3 3 1.9 5 1.9 4.5 0 6.7-2.3 6.7-7H305Z"/>
        <path d="M398.1 216.8a18.6 18.6 0 0 1 18.6-18.6 18.5 18.5 0 0 1 18.6 18.6v9.9c0 3.3-.9 6.4-2.6 9.2a18.5 18.5 0 0 1-25.4 6.8 18.6 18.6 0 0 1-9.2-16v-9.9Zm11.7 9.9c0 2 .6 3.8 1.9 5.2 1.3 1.5 3 2.2 5 2.2s3.6-.7 5-2.2a7.8 7.8 0 0 0 1.8-5.2v-10c0-2-.6-3.8-1.9-5.2a6.4 6.4 0 0 0-5-2.1 7 7 0 0 0-5 2 7.5 7.5 0 0 0-1.8 5.3v10Z"/>
        <path d="M350.5 244v-33.3h-16.8v-11.2h36v11.2h-16.9V244h-2.3Z"/>
        <path d="M399.5 114V69.5h2.4V82a31.2 31.2 0 0 1 29.6 19.9V69.5h2.3V114h-2.3a29.2 29.2 0 0 0-29.6-29.6V114h-2.4Z"/>
        <path d="M497.1 244H463v-44.5h17.3c3.7 0 6.8.6 9.1 2 2.3 1.2 4.1 3 5.4 5.2 1.3 2.2 1.9 4.7 1.9 7.3a14.5 14.5 0 0 1-10.8 14.1L497 244ZM467 201.8l17.4 24.3a12.1 12.1 0 0 0 9.9-12.1 11.7 11.7 0 0 0-6.6-10.8c-1.8-1-4.3-1.4-7.3-1.4H467Zm-1.7 1.6v23h16.5l-16.5-23Zm0 38.2h27.4l-9.3-13-2 .1h-16v13Z"/>
        <path d="M477.5 114V80.7h-16.8V69.5h36v11.2h-16.9V114h-2.3Z"/>
        <path d="M437.7 179h-42l21-45.5 21 45.5Zm-38.3-2.4H434l-17.3-37.5-17.3 37.5Z"/>
        <path d="M12.7 69.4h2.6l15.5 27.5 15.5-27.5h2.4v44.5h-36V69.4Zm2.4 42.2h31.2V74.2L31.9 99.5h-2.2L15 73.8v37.8Z"/>
        <path d="M113.1 102.7V114H79.2V69.5h2.4v33.2H113Z"/>
        <path d="M352 180.2a21 21 0 0 1-14.3-4.4c-3.4-3-5-7.3-5-13.2h10.5c0 2.4.7 4.3 2.1 5.6 1.5 1.3 3.6 1.9 6.3 1.9 2.2 0 4-.4 5.3-1a4 4 0 0 0 1.9-3.4c0-1.2-.7-2.1-2-2.7-1.3-.6-2.6-1-3.8-1.2l-2.4-.4c-3.3-.6-6.1-1.4-8.5-2.3-2.4-1-4.4-2.4-6-4.2a11 11 0 0 1-2.5-7.5c0-3 .8-5.6 2.5-7.8 1.6-2.1 3.7-3.8 6.4-4.8 2.8-1 5.7-1.6 9-1.6 3.8 0 7.2.7 10 2.2a15.6 15.6 0 0 1 8.2 10.6l.2 3.8h-10.4c0-2.3-.6-4-1.9-5-1.2-1.1-3.1-1.7-5.7-1.7-2.1 0-3.7.4-4.9 1a3.3 3.3 0 0 0-1.7 3c0 1.4.7 2.4 2.3 3 1.5.7 3.5 1.3 5.8 1.8a75 75 0 0 1 9 2.2c2.1.7 4 2 5.6 3.7a11 11 0 0 1 2.4 7.6c0 3-.9 5.7-2.6 7.9a16 16 0 0 1-6.8 5.1 23.3 23.3 0 0 1-9 1.8Z"/>
        <path d="M479 180.2a21 21 0 0 1-14.3-4.4c-3.4-3-5-7.3-5-13.2h10.5c0 2.4.7 4.3 2.1 5.6 1.5 1.3 3.6 1.9 6.3 1.9 2.2 0 4-.4 5.3-1a4 4 0 0 0 1.9-3.4c0-1.2-.7-2.1-2-2.7-1.3-.6-2.6-1-3.8-1.2l-2.4-.4c-3.3-.6-6.1-1.4-8.5-2.3-2.4-1-4.4-2.4-6-4.2a11 11 0 0 1-2.5-7.5c0-3 .8-5.6 2.5-7.8 1.6-2.1 3.7-3.8 6.4-4.8 2.8-1 5.7-1.6 9-1.6 3.8 0 7.2.7 10 2.2a15.6 15.6 0 0 1 8.2 10.6l.2 3.8h-10.4c0-2.3-.6-4-1.9-5-1.2-1.1-3.1-1.7-5.7-1.7-2.1 0-3.7.4-4.9 1a3.3 3.3 0 0 0-1.7 3c0 1.4.7 2.4 2.3 3 1.5.7 3.5 1.3 5.8 1.8a75 75 0 0 1 9 2.2c2.1.7 4 2 5.6 3.7a11 11 0 0 1 2.4 7.6c0 3-.9 5.7-2.6 7.9a16 16 0 0 1-6.8 5.1 23.3 23.3 0 0 1-9 1.8Z"/>
        <path d="M437.7 307h-42l21-45.5 21 45.5Zm-38.3-2.4H434l-17.3-37.5-17.3 37.5Z"/>
        <path d="M31 180.2a21 21 0 0 1-14.3-4.4c-3.4-3-5-7.3-5-13.2h10.5c0 2.4.7 4.3 2.1 5.6 1.5 1.3 3.6 1.9 6.3 1.9 2.2 0 4-.4 5.3-1a4 4 0 0 0 1.9-3.4c0-1.2-.7-2.1-2-2.7-1.3-.6-2.6-1-3.8-1.2a53.7 53.7 0 0 1-11-2.8 14 14 0 0 1-6-4.1 11 11 0 0 1-2.5-7.5c0-3 .8-5.6 2.5-7.8 1.6-2.1 3.7-3.8 6.4-4.8 2.8-1 5.7-1.6 9-1.6 3.8 0 7.2.7 10 2.2a15.6 15.6 0 0 1 8.2 10.6l.2 3.8H38.5c0-2.3-.6-4-1.9-5-1.2-1.1-3.1-1.7-5.7-1.7-2.1 0-3.7.4-4.9 1a3.3 3.3 0 0 0-1.7 3c0 1.4.7 2.4 2.3 3 1.5.7 3.5 1.3 5.8 1.8a75 75 0 0 1 9 2.2c2.1.7 4 2 5.6 3.7a11 11 0 0 1 2.4 7.6c0 3-.9 5.7-2.6 7.9a16 16 0 0 1-6.8 5.1 23.3 23.3 0 0 1-9 1.8Z"/>
        <path d="M206.3 307v-44.6h2.5l31.1 30.3v-30.3h2.4v44.5h-36Z"/>
        <path d="M271.9 307v-44.5h18.6c3.1 0 5.8.5 8 1.7a15.4 15.4 0 0 1 6.3 21.9 15 15 0 0 1-6.2 5.7 17.8 17.8 0 0 1-8 1.7h-7V307h-11.7Z"/>
        <path d="M333.7 262.4h2.6l15.5 27.5 15.5-27.5h2.4v44.5h-36v-44.5Zm2.4 42.2h31.2v-37.4l-14.4 25.3h-2.2L336 266.8v37.8Z"/>
        <path d="M478.4 263.9a15.9 15.9 0 0 0-16 16v8.4c0 3 .4 5.5 1.2 7.5a16 16 0 0 0 13.7 9.7v-20.8h19.5v4.3c0 2.7-.4 5.1-1.2 7.2a18.3 18.3 0 0 1-17.2 11.7 18 18 0 0 1-16.8-11.1 20.2 20.2 0 0 1-1.6-8.5V280a18.2 18.2 0 0 1 18.4-18.4c2.7 0 5.3.5 7.6 1.4 2.3.9 4.2 2.2 5.9 4 1.3 1.4 2.4 3 3.2 4.8.8 1.8 1.2 3.6 1.2 5.5H494a11 11 0 0 0-1.2-4.7c-.7-1.5-1.6-3-2.8-4.2-2.9-3-6.7-4.4-11.6-4.4Zm16 23.1h-14.8v18.5a16 16 0 0 0 8.2-2.9 15 15 0 0 0 5.5-6.9 20 20 0 0 0 1.1-6.7v-2Z"/>
        <path d="M16.3 273.7v-11.2H45v11.2H31.8v22h13.3V307H16.3v-11.3h13.2v-22H16.3Z"/>
        <path d="M113.1 295.7V307H79.2v-44.5h2.4v33.2H113Z"/>
        <path d="M142.7 262.5H175v11.2h-20.8v5.7h17.3V290h-17.3v5.7H175V307h-32.4v-44.5Z"/>
        <path d="M14.7 370v-44.5h16.6a18 18 0 0 1 18 18v8.5a17.6 17.6 0 0 1-9 15.6 17.2 17.2 0 0 1-9 2.4H14.7Z"/>
        <path d="M435.1 370H401v-44.5h17.3c3.7 0 6.8.6 9.1 2 2.3 1.2 4.1 3 5.4 5.2 1.3 2.2 1.9 4.7 1.9 7.3a14.5 14.5 0 0 1-10.8 14.1L435 370ZM405 327.8l17.4 24.3a12.1 12.1 0 0 0 9.9-12.1 11.7 11.7 0 0 0-6.6-10.8c-1.8-1-4.3-1.4-7.3-1.4H405Zm-1.7 1.6v23h16.5l-16.5-23Zm0 38.2h27.4l-9.3-13-2 .1h-16v13Z"/>
        <path d="M77.7 325.5H110v11.2H89.3v5.7h17.3V353H89.3v5.7h20.8V370H77.7v-44.5Z"/>
        <path d="M159 371.2a21 21 0 0 1-14.3-4.4c-3.4-3-5-7.3-5-13.2h10.5c0 2.4.7 4.3 2.1 5.6 1.5 1.3 3.6 1.9 6.3 1.9 2.2 0 4-.4 5.3-1a4 4 0 0 0 1.9-3.4c0-1.2-.7-2.1-2-2.7-1.3-.6-2.6-1-3.8-1.2l-2.4-.4c-3.3-.6-6.1-1.4-8.5-2.3-2.4-1-4.4-2.4-6-4.2a11 11 0 0 1-2.5-7.5c0-3 .8-5.6 2.5-7.8 1.6-2.1 3.7-3.8 6.4-4.8 2.8-1 5.7-1.6 9-1.6 3.8 0 7.2.7 10 2.2a15.6 15.6 0 0 1 8.2 10.6l.2 3.8h-10.4c0-2.3-.6-4-1.9-5-1.2-1.1-3.1-1.7-5.7-1.7-2.1 0-3.7.4-4.9 1a3.3 3.3 0 0 0-1.7 3c0 1.4.7 2.4 2.3 3 1.5.7 3.5 1.3 5.8 1.8a75 75 0 0 1 9 2.2c2.1.7 4 2 5.6 3.7a11 11 0 0 1 2.4 7.6c0 3-.9 5.7-2.6 7.9a16 16 0 0 1-6.8 5.1 23.3 23.3 0 0 1-9 1.8Z"/>
        <path d="M209.3 336.7v-11.2H238v11.2h-13.3v22H238V370h-28.8v-11.3h13.2v-22h-13.2Z"/>
        <path d="M286.4 326.9a15.9 15.9 0 0 0-16 16v8.4c0 3 .4 5.5 1.2 7.5a16 16 0 0 0 13.7 9.7v-20.8h19.5v4.3c0 2.7-.4 5.1-1.2 7.2a18.3 18.3 0 0 1-17.2 11.7 18 18 0 0 1-16.8-11.1 20.2 20.2 0 0 1-1.6-8.5V343a18.2 18.2 0 0 1 18.4-18.4c2.7 0 5.3.5 7.6 1.4 2.3.9 4.2 2.2 5.9 4 1.3 1.4 2.4 3 3.2 4.8.8 1.8 1.2 3.6 1.2 5.5H302a11 11 0 0 0-1.2-4.7c-.7-1.5-1.6-3-2.8-4.2-2.9-3-6.7-4.4-11.6-4.4Zm16 23.1h-14.8v18.5a16 16 0 0 0 8.2-2.9 15 15 0 0 0 5.5-6.9 20 20 0 0 0 1.1-6.7v-2Z"/>
        <path d="M334.3 370v-44.6h2.5l31.1 30.3v-30.3h2.4v44.5h-36Z"/>
        <path d="M436.1 423.7V435h-33.9v-44.5h2.4v33.2H436Z"/>
        <path d="m459.8 370 17.5-22.3-17.5-22.2h37.8l-17.4 22.2 17.4 22.3h-37.8Zm18.9-24.2 14.1-18h-28.2l14 18Zm14.1 21.8-14.1-18-14.1 18h28.2Z"/>
        <path d="m157.5 405.7-4.1-15.2h26.4l-12 44.5h-2.5l-6.6-24.8L152 435h-2.5l-12-44.5h2.5l10.7 40 6.8-24.8Zm19.2-12.9h-20.3l3.5 12.9 6.7 24.9 10.1-37.8Z"/>
        <path d="M207.7 390.5H240v11.2h-20.8v5.7h17.3V418h-17.3v5.7H240V435h-32.4v-44.5Z"/>
        <path d="M289.8 390.5c2.8 0 5 .4 6.7 1.2 2 1 3.6 2.5 4.6 4.3a11.2 11.2 0 0 1 0 11.8 11.9 11.9 0 0 1-4.5 4.2c2.3.8 4.2 2.2 5.8 4.2 1.6 2 2.4 4.3 2.4 6.8a12.2 12.2 0 0 1-6.2 10.5c-1 .5-2 .9-3.2 1.1a22 22 0 0 1-4.6.4h-19.7v-44.5h18.7Z"/>
        <path d="M351.4 391.9a15.9 15.9 0 0 0-16 16v8.4c0 3 .4 5.5 1.2 7.5a16 16 0 0 0 13.7 9.7v-20.8h19.5v4.3c0 2.7-.4 5.1-1.2 7.2a18.3 18.3 0 0 1-17.2 11.7 18 18 0 0 1-16.8-11.1 20.2 20.2 0 0 1-1.6-8.5V408a18.2 18.2 0 0 1 18.4-18.4c2.7 0 5.3.5 7.6 1.4 2.3.9 4.2 2.2 5.9 4 1.3 1.4 2.4 3 3.2 4.8.8 1.8 1.2 3.6 1.2 5.5H367a11 11 0 0 0-1.2-4.7c-.7-1.5-1.6-3-2.8-4.2-2.9-3-6.7-4.4-11.6-4.4Zm16 23.1h-14.8v18.5a16 16 0 0 0 8.2-2.9 15 15 0 0 0 5.5-6.9 20 20 0 0 0 1.1-6.7v-2Z"/>
        <path d="M497 418.2c0 5.6-1.5 10-4.8 13A18.5 18.5 0 0 1 479 436c-3.4 0-6.5-.8-9.4-2.3a18.4 18.4 0 0 1-9.2-16.3v-9.3c0-3.7.8-6.9 2.4-9.7a17 17 0 0 1 6.6-6.5c2.8-1.6 6-2.4 9.4-2.4 5.7 0 10 1.6 13.3 4.7 3.2 3 4.9 7.4 5 13h-11.6c0-2.2-.6-3.8-1.8-5-1.1-1.2-2.7-1.8-5-1.8-1.9 0-3.5.6-4.8 1.8a7 7 0 0 0-1.9 5.3v10.4c0 2.3.7 4 2 5.3 1.3 1.3 3 1.9 5 1.9 4.5 0 6.7-2.3 6.7-7H497Z"/>
        <path d="M31 436.2a21 21 0 0 1-14.3-4.4c-3.4-3-5-7.3-5-13.2h10.5c0 2.4.7 4.3 2.1 5.6 1.5 1.3 3.6 1.9 6.3 1.9 2.2 0 4-.4 5.3-1a4 4 0 0 0 1.9-3.4c0-1.2-.7-2.1-2-2.7-1.3-.6-2.6-1-3.8-1.2a53.7 53.7 0 0 1-11-2.8 14 14 0 0 1-6-4.1 11 11 0 0 1-2.5-7.5c0-3 .8-5.6 2.5-7.8 1.6-2.1 3.7-3.8 6.4-4.8 2.8-1 5.7-1.6 9-1.6 3.8 0 7.2.7 10 2.2a15.6 15.6 0 0 1 8.2 10.6l.2 3.8H38.5c0-2.3-.6-4-1.9-5-1.2-1.1-3.1-1.7-5.7-1.7-2.1 0-3.7.4-4.9 1a3.3 3.3 0 0 0-1.7 3c0 1.4.7 2.4 2.3 3 1.5.7 3.5 1.3 5.8 1.8a75 75 0 0 1 9 2.2c2.1.7 4 2 5.6 3.7a11 11 0 0 1 2.4 7.6c0 3-.9 5.7-2.6 7.9a16 16 0 0 1-6.8 5.1 23.3 23.3 0 0 1-9 1.8Z"/>
        <path d="M395.7 456.4h42l-21 45.5-21-45.5Zm21 39.9 17.3-37.5h-34.6l17.3 37.5Z"/>
        <path d="M94 436.2a21 21 0 0 1-14.3-4.4c-3.4-3-5-7.3-5-13.2h10.5c0 2.4.7 4.3 2.1 5.6 1.5 1.3 3.6 1.9 6.3 1.9 2.2 0 4-.4 5.3-1a4 4 0 0 0 1.9-3.4c0-1.2-.7-2.1-2-2.7-1.3-.6-2.6-1-3.8-1.2a53.7 53.7 0 0 1-11-2.8 14 14 0 0 1-6-4.1 11 11 0 0 1-2.5-7.5c0-3 .8-5.6 2.5-7.8 1.6-2.1 3.7-3.8 6.4-4.8 2.8-1 5.7-1.6 9-1.6 3.8 0 7.2.7 10 2.2a15.6 15.6 0 0 1 8.2 10.6l.2 3.8h-10.4c0-2.3-.6-4-1.9-5-1.2-1.1-3.1-1.7-5.7-1.7-2.1 0-3.7.4-4.9 1a3.3 3.3 0 0 0-1.7 3c0 1.4.7 2.4 2.3 3 1.5.7 3.5 1.3 5.8 1.8a75 75 0 0 1 9 2.2c2.1.7 4 2 5.6 3.7a11 11 0 0 1 2.4 7.6c0 3-.9 5.7-2.6 7.9a16 16 0 0 1-6.8 5.1 23.3 23.3 0 0 1-9 1.8Z"/>
        <path d="M33.8 456.5c2.8 0 5 .4 6.7 1.2 2 1 3.6 2.5 4.6 4.3a11.2 11.2 0 0 1 0 11.8 11.9 11.9 0 0 1-4.5 4.2c2.3.8 4.2 2.2 5.8 4.2 1.6 2 2.4 4.3 2.4 6.8a12.2 12.2 0 0 1-6.2 10.5c-1 .5-2 .9-3.2 1.1a22 22 0 0 1-4.6.4H15.1v-44.5h18.7Z"/>
        <path d="M114.7 501h-42l21-45.5 21 45.5Zm-38.3-2.4H111l-17.3-37.5-17.3 37.5Z"/>
        <path d="M161.8 456.5c2.8 0 5 .4 6.7 1.2 2 1 3.6 2.5 4.6 4.3a11.2 11.2 0 0 1 0 11.8 11.9 11.9 0 0 1-4.5 4.2c2.3.8 4.2 2.2 5.8 4.2 1.6 2 2.4 4.3 2.4 6.8a12.2 12.2 0 0 1-6.2 10.5c-1 .5-2 .9-3.2 1.1a22 22 0 0 1-4.6.4h-19.7v-44.5h18.7Z"/>
        <path d="M207.7 456.5H240v11.2h-20.8v5.7h17.3V484h-17.3v5.7H240V501h-32.4v-44.5Z"/>
        <path d="M306.1 489.7V501h-33.9v-44.5h2.4v33.2H306Z"/>
        <path d="M334.3 501v-44.6h2.5l31.1 30.3v-30.3h2.4v44.5h-36Z"/>
        <path d="M460.7 456.4h2.6l15.5 27.5 15.5-27.5h2.4v44.5h-36v-44.5Zm2.4 42.2h31.2v-37.4l-14.4 25.3h-2.2L463 460.8v37.8Z"/>
    </g>
</svg>
