<svg width="256" height="256" viewBox="0 0 256 256" fill="none" xmlns="http://www.w3.org/2000/svg">
  <rect width="256" height="256" class="back" />
  <path
    d="M132.478 82.912H88.8935V196H62.5895V82.912H19.0055V59.68H132.478V82.912ZM217.357 95.392C216.461 94.496 214.797 93.28 212.365 91.744C210.061 90.208 207.181 88.736 203.725 87.328C200.397 85.92 196.749 84.704 192.781 83.68C188.813 82.528 184.781 81.952 180.685 81.952C173.517 81.952 168.077 83.296 164.365 85.984C160.781 88.672 158.989 92.448 158.989 97.312C158.989 101.024 160.141 103.968 162.445 106.144C164.749 108.32 168.205 110.176 172.813 111.712C177.421 113.248 183.181 114.912 190.093 116.704C199.053 118.88 206.797 121.568 213.325 124.768C219.981 127.84 225.037 131.936 228.493 137.056C232.077 142.048 233.869 148.704 233.869 157.024C233.869 164.32 232.525 170.592 229.837 175.84C227.149 180.96 223.437 185.12 218.701 188.32C213.965 191.52 208.589 193.888 202.573 195.424C196.557 196.832 190.157 197.536 183.373 197.536C176.589 197.536 169.805 196.832 163.021 195.424C156.237 194.016 149.709 192.032 143.437 189.472C137.165 186.784 131.405 183.584 126.157 179.872L137.869 157.024C139.021 158.176 141.069 159.712 144.013 161.632C146.957 163.424 150.541 165.28 154.765 167.2C158.989 168.992 163.597 170.528 168.589 171.808C173.581 173.088 178.637 173.728 183.757 173.728C190.925 173.728 196.365 172.512 200.077 170.08C203.789 167.648 205.645 164.192 205.645 159.712C205.645 155.616 204.173 152.416 201.229 150.112C198.285 147.808 194.189 145.824 188.941 144.16C183.693 142.368 177.485 140.448 170.317 138.4C161.741 135.968 154.573 133.28 148.813 130.336C143.053 127.264 138.765 123.424 135.949 118.816C133.133 114.208 131.725 108.448 131.725 101.536C131.725 92.192 133.901 84.384 138.253 78.112C142.733 71.712 148.749 66.912 156.301 63.712C163.853 60.384 172.237 58.72 181.453 58.72C187.853 58.72 193.869 59.424 199.501 60.832C205.261 62.24 210.637 64.096 215.629 66.4C220.621 68.704 225.101 71.2 229.069 73.888L217.357 95.392Z"
    class="path"
  />
  <path
    d="M132.478 82.912V87.912H137.478V82.912H132.478ZM88.8935 82.912V77.912H83.8935V82.912H88.8935ZM88.8935 196V201H93.8935V196H88.8935ZM62.5895 196H57.5895V201H62.5895V196ZM62.5895 82.912H67.5895V77.912H62.5895V82.912ZM19.0055 82.912H14.0055V87.912H19.0055V82.912ZM19.0055 59.68V54.68H14.0055V59.68H19.0055ZM132.478 59.68H137.478V54.68H132.478V59.68ZM132.478 77.912H88.8935V87.912H132.478V77.912ZM83.8935 82.912V196H93.8935V82.912H83.8935ZM88.8935 191H62.5895V201H88.8935V191ZM67.5895 196V82.912H57.5895V196H67.5895ZM62.5895 77.912H19.0055V87.912H62.5895V77.912ZM24.0055 82.912V59.68H14.0055V82.912H24.0055ZM19.0055 64.68H132.478V54.68H19.0055V64.68ZM127.478 59.68V82.912H137.478V59.68H127.478ZM217.357 95.392L213.821 98.9275L218.549 103.656L221.747 97.7835L217.357 95.392ZM212.365 91.744L209.591 95.9042L209.642 95.9385L209.695 95.9714L212.365 91.744ZM203.725 87.328L201.776 91.9328L201.807 91.9458L201.838 91.9585L203.725 87.328ZM192.781 83.68L191.386 88.4817L191.458 88.5026L191.531 88.5214L192.781 83.68ZM164.365 85.984L161.432 81.9343L161.398 81.9589L161.365 81.984L164.365 85.984ZM172.813 111.712L171.231 116.455L171.231 116.455L172.813 111.712ZM190.093 116.704L188.838 121.544L188.875 121.554L188.913 121.563L190.093 116.704ZM213.325 124.768L211.124 129.258L211.176 129.283L211.229 129.308L213.325 124.768ZM228.493 137.056L224.348 139.853L224.389 139.913L224.431 139.972L228.493 137.056ZM229.837 175.84L234.263 178.164L234.275 178.142L234.287 178.119L229.837 175.84ZM202.573 195.424L203.712 200.292L203.761 200.281L203.809 200.269L202.573 195.424ZM143.437 189.472L141.467 194.068L141.507 194.085L141.547 194.101L143.437 189.472ZM126.157 179.872L121.707 177.591L119.729 181.45L123.269 183.954L126.157 179.872ZM137.869 157.024L141.404 153.488L136.55 148.635L133.419 154.743L137.869 157.024ZM144.013 161.632L141.281 165.82L141.346 165.863L141.413 165.903L144.013 161.632ZM154.765 167.2L152.695 171.752L152.753 171.778L152.812 171.803L154.765 167.2ZM168.589 171.808L167.347 176.651L167.347 176.651L168.589 171.808ZM200.077 170.08L197.336 165.898L197.336 165.898L200.077 170.08ZM188.941 144.16L187.325 148.892L187.377 148.91L187.429 148.926L188.941 144.16ZM170.317 138.4L171.69 133.592L171.681 133.59L170.317 138.4ZM148.813 130.336L146.46 134.748L146.498 134.768L146.537 134.788L148.813 130.336ZM135.949 118.816L131.682 121.423L131.682 121.423L135.949 118.816ZM138.253 78.112L134.156 75.2447L134.15 75.2531L134.145 75.2616L138.253 78.112ZM156.301 63.712L158.251 68.3158L158.284 68.3018L158.317 68.2874L156.301 63.712ZM199.501 60.832L198.288 65.6827L198.301 65.6859L198.313 65.689L199.501 60.832ZM215.629 66.4L217.724 61.8602L217.724 61.8602L215.629 66.4ZM229.069 73.888L233.459 76.2795L235.63 72.2938L231.873 69.7484L229.069 73.888ZM220.892 91.8564C219.569 90.5331 217.487 89.0654 215.034 87.5166L209.695 95.9714C212.106 97.4946 213.352 98.4589 213.821 98.9275L220.892 91.8564ZM215.138 87.5837C212.478 85.8102 209.278 84.1915 205.611 82.6975L201.838 91.9585C205.083 93.2804 207.643 94.6058 209.591 95.9042L215.138 87.5837ZM205.673 82.7232C202.09 81.2075 198.205 79.9161 194.03 78.8386L191.531 88.5214C195.292 89.4919 198.703 90.6325 201.776 91.9328L205.673 82.7232ZM194.175 78.8783C189.758 77.5959 185.256 76.952 180.685 76.952V86.952C184.305 86.952 187.867 87.4601 191.386 88.4817L194.175 78.8783ZM180.685 76.952C173.016 76.952 166.356 78.3684 161.432 81.9343L167.297 90.0337C169.797 88.2236 174.017 86.952 180.685 86.952V76.952ZM161.365 81.984C156.401 85.7062 153.989 91.0305 153.989 97.312H163.989C163.989 93.8655 165.16 91.6377 167.365 89.984L161.365 81.984ZM153.989 97.312C153.989 102.143 155.535 106.496 159.011 109.779L165.878 102.509C164.746 101.44 163.989 99.9048 163.989 97.312H153.989ZM159.011 109.779C162.051 112.65 166.265 114.8 171.231 116.455L174.394 106.969C170.144 105.552 167.446 103.99 165.878 102.509L159.011 109.779ZM171.231 116.455C175.984 118.04 181.862 119.735 188.838 121.544L191.347 111.864C184.499 110.089 178.857 108.456 174.394 106.969L171.231 116.455ZM188.913 121.563C197.609 123.675 204.995 126.253 211.124 129.258L215.525 120.278C208.598 116.883 200.496 114.085 191.272 111.845L188.913 121.563ZM211.229 129.308C217.212 132.069 221.492 135.621 224.348 139.853L232.637 134.259C228.581 128.251 222.749 123.611 215.42 120.228L211.229 129.308ZM224.431 139.972C227.222 143.86 228.869 149.386 228.869 157.024H238.869C238.869 148.022 236.931 140.236 232.554 134.14L224.431 139.972ZM228.869 157.024C228.869 163.712 227.637 169.166 225.386 173.561L234.287 178.119C237.412 172.018 238.869 164.928 238.869 157.024H228.869ZM225.41 173.516C223.101 177.913 219.944 181.445 215.901 184.177L221.5 192.463C226.929 188.795 231.196 184.007 234.263 178.164L225.41 173.516ZM215.901 184.177C211.681 187.028 206.842 189.173 201.336 190.579L203.809 200.269C210.335 198.603 216.248 196.012 221.5 192.463L215.901 184.177ZM201.433 190.556C195.825 191.868 189.81 192.536 183.373 192.536V202.536C190.503 202.536 197.288 201.796 203.712 200.292L201.433 190.556ZM183.373 192.536C176.937 192.536 170.493 191.868 164.037 190.528L162.004 200.32C169.116 201.796 176.24 202.536 183.373 202.536V192.536ZM164.037 190.528C157.544 189.181 151.309 187.285 145.326 184.843L141.547 194.101C148.108 196.779 154.929 198.851 162.004 200.32L164.037 190.528ZM145.406 184.876C139.437 182.318 133.988 179.287 129.044 175.79L123.269 183.954C128.821 187.881 134.892 191.25 141.467 194.068L145.406 184.876ZM130.606 182.153L142.318 159.305L133.419 154.743L121.707 177.591L130.606 182.153ZM134.333 160.56C135.877 162.104 138.301 163.876 141.281 165.82L146.744 157.444C143.836 155.548 142.164 154.248 141.404 153.488L134.333 160.56ZM141.413 165.903C144.575 167.828 148.347 169.775 152.695 171.752L156.834 162.648C152.734 160.785 149.338 159.02 146.612 157.361L141.413 165.903ZM152.812 171.803C157.292 173.704 162.141 175.317 167.347 176.651L169.83 166.965C165.052 165.739 160.685 164.28 156.717 162.597L152.812 171.803ZM167.347 176.651C172.742 178.035 178.215 178.728 183.757 178.728V168.728C179.058 168.728 174.419 168.141 169.83 166.965L167.347 176.651ZM183.757 178.728C191.354 178.728 197.931 177.463 202.817 174.262L197.336 165.898C194.798 167.561 190.495 168.728 183.757 168.728V178.728ZM202.817 174.262C207.955 170.896 210.645 165.858 210.645 159.712H200.645C200.645 162.525 199.622 164.4 197.336 165.898L202.817 174.262ZM210.645 159.712C210.645 154.247 208.592 149.525 204.31 146.174L198.147 154.05C199.753 155.307 200.645 156.985 200.645 159.712H210.645ZM204.31 146.174C200.73 143.373 196.025 141.161 190.452 139.394L187.429 148.926C192.352 150.487 195.839 152.243 198.147 154.05L204.31 146.174ZM190.556 139.428C185.206 137.601 178.914 135.656 171.69 133.592L168.943 143.208C176.055 145.24 182.179 147.135 187.325 148.892L190.556 139.428ZM171.681 133.59C163.311 131.216 156.471 128.635 151.088 125.884L146.537 134.788C152.674 137.925 160.17 140.72 168.952 143.21L171.681 133.59ZM151.165 125.924C146.028 123.184 142.477 119.911 140.215 116.209L131.682 121.423C135.052 126.937 140.077 131.344 146.46 134.748L151.165 125.924ZM140.215 116.209C137.996 112.577 136.725 107.782 136.725 101.536H126.725C126.725 109.114 128.269 115.839 131.682 121.423L140.215 116.209ZM136.725 101.536C136.725 92.9797 138.708 86.2256 142.36 80.9624L134.145 75.2616C129.093 82.5424 126.725 91.4043 126.725 101.536H136.725ZM142.349 80.9793C146.263 75.3872 151.518 71.1688 158.251 68.3158L154.35 59.1082C145.979 62.6551 139.202 68.0368 134.156 75.2447L142.349 80.9793ZM158.317 68.2874C165.163 65.2704 172.85 63.72 181.453 63.72V53.72C171.623 53.72 162.542 55.4976 154.284 59.1366L158.317 68.2874ZM181.453 63.72C187.485 63.72 193.091 64.3834 198.288 65.6827L200.713 55.9813C194.646 54.4646 188.22 53.72 181.453 53.72V63.72ZM198.313 65.689C203.785 67.0266 208.855 68.7805 213.533 70.9398L217.724 61.8602C212.418 59.4115 206.736 57.4534 200.688 55.975L198.313 65.689ZM213.533 70.9398C218.314 73.1461 222.551 75.5123 226.264 78.0276L231.873 69.7484C227.65 66.8877 222.927 64.2619 217.724 61.8602L213.533 70.9398ZM224.678 71.4965L212.966 93.0005L221.747 97.7835L233.459 76.2795L224.678 71.4965Z"
    class="path"
  />
  <defs>
    <linearGradient
      id="gradient"
      x1="197.12"
      y1="-1.33698e-05"
      x2="-22.2472"
      y2="104.487"
      gradientUnits="userSpaceOnUse">
      <stop stop-color="#FF2F22" />
      <stop offset="1" stop-color="#C81132" />
    </linearGradient>
  </defs>
  <style>
    .back {
      fill: url(#gradient);
    }

    .path {
      fill: white;
    }

    @media (prefers-color-scheme: dark) {
      .back {
        fill: none;
      }

      .path {
        fill: url(#gradient);
      }
    }

    @media (prefers-color-scheme: light) {
      .back {
        fill: none;
      }

      .path {
        fill: url(#gradient);
      }
    }
  </style>
</svg>
